<?xml version="1.0" encoding="utf-8"?>
<!-- Generator: Adobe Illustrator 26.1.0, SVG Export Plug-In . SVG Version: 6.00 Build 0)  -->
<svg version="1.1" id="Ebene_1" xmlns="http://www.w3.org/2000/svg" xmlns:xlink="http://www.w3.org/1999/xlink" x="0px" y="0px"
	 viewBox="0 0 171.4 112" style="enable-background:new 0 0 171.4 112;" xml:space="preserve">
<style type="text/css">
	.st0{fill:#3C3C3B;}
	.st1{fill:#00A1A3;}
</style>
<path class="st0" d="M50.7,25c-0.6-0.5-1.4-0.5-1.9,0L21.3,48.4c-0.3,0.3-0.5,0.7-0.5,1.1v35.2c0,0.8,0.7,1.5,1.5,1.5h6.5
	c0.8,0,1.5-0.7,1.5-1.5v-1c0-0.8-0.7-1.5-1.5-1.5h-4V50.7l25-21.3l23.6,19.8c0.3,0.3,0.7,0.4,1.1,0.3c0.4,0,0.8-0.2,1-0.5l0.6-0.8
	c0.5-0.6,0.4-1.6-0.2-2.1L50.7,25z M115.6,30.8L79.3,0.4c-0.6-0.5-1.4-0.5-1.9,0l-23.5,20c-0.6,0.5-0.7,1.5-0.2,2.1l0.2,0.2l0.8,0.6
	c0.6,0.5,1.4,0.5,1.9,0L78.4,4.8l33.7,28.3V71h-4.4c-0.8,0-1.5,0.7-1.5,1.5v1c0,0.8,0.7,1.5,1.5,1.5h6.9c0.8,0,1.5-0.7,1.5-1.5V31.9
	C116.1,31.5,115.9,31.1,115.6,30.8z"/>
<path class="st0" d="M35,56.1c1.7-0.3,4.3-0.6,6.9-0.6c3.8,0,6.2,0.7,8,2.1c1.5,1.1,2.4,2.9,2.4,5.2c0,2.8-1.9,5.3-5,6.4v0.1
	c2.8,0.7,6,3,6,7.3c0,2.5-1,4.4-2.5,5.9c-2,1.9-5.3,2.7-10.1,2.7c-2.6,0-4.6-0.2-5.9-0.3L35,56.1z M38.8,68.1h3.4
	c4,0,6.3-2.1,6.3-4.9c0-3.4-2.6-4.8-6.4-4.8c-1.7,0-2.7,0.1-3.3,0.3V68.1z M38.8,82.1c0.7,0.1,1.8,0.2,3.2,0.2
	c3.9,0,7.5-1.4,7.5-5.7c0-4-3.4-5.7-7.6-5.7h-3.1L38.8,82.1z M73.2,71.2H61.8v10.6h12.7V85H58V55.7h15.8v3.1h-12v9.3h11.4V71.2z
	 M100.6,83.7c-1.7,0.6-5,1.6-9,1.6c-4.4,0-8.1-1.1-11-3.9c-2.5-2.4-4.1-6.3-4.1-10.9c0-8.7,6-15.1,15.9-15.1c3.4,0,6,0.7,7.3,1.3
	l-0.9,3.1c-1.6-0.7-3.5-1.3-6.5-1.3c-7.1,0-11.8,4.4-11.8,11.8S85,82.1,91.8,82.1c2.5,0,4.2-0.3,5-0.8v-8.8h-6v-3h9.7L100.6,83.7z"
	/>
<path class="st1" d="M105.8,87.4l3-1.3c1.9-0.8,4.6-2.1,7.7-3.6c3.2-1.5,6.8-3.4,10.6-5.7s7.7-4.9,11.1-8.1c1.7-1.6,3.2-3.3,4.2-5.3
	c0.5-1,0.8-2,0.9-3.1v-0.8c0-0.3,0-0.5-0.1-0.8c-0.1-0.5-0.2-1-0.4-1.5c-0.8-1.9-2.5-3.3-4.2-4.2c-1.8-0.9-3.6-1.5-5.3-1.8
	c-3.4-0.8-6.3-1-8.4-1.1s-3.2-0.1-3.2-0.1c-0.1,0-0.2-0.1-0.2-0.2s0.1-0.2,0.2-0.2h0.1c0,0,0.3-0.1,0.8-0.2c0.6-0.1,1.4-0.4,2.4-0.5
	c1.1-0.2,2.3-0.4,3.8-0.5c1.5-0.1,3.2-0.2,5.1,0s4.1,0.5,6.4,1.5c1.1,0.5,2.3,1.1,3.5,2s2.3,2.2,3,3.8c0.4,0.8,0.7,1.6,0.9,2.5
	c0.1,0.4,0.2,1,0.2,1.4v1.1c-0.1,1.9-0.5,3.6-1.2,5c-1.4,2.9-3.2,5-5.1,6.8s-3.9,3.3-6,4.7s-4.1,2.5-6.2,3.6c-2.1,1-4.1,1.9-6,2.7
	c-1,0.4-1.9,0.8-2.8,1.1l-2.7,0.9c-0.9,0.3-1.7,0.5-2.5,0.7s-1.6,0.4-2.3,0.6c-1.4,0.4-2.7,0.6-3.8,0.8c-1,0.2-1.9,0.3-2.4,0.4
	c-0.6,0.1-0.9,0.1-0.9,0.1h-0.1c-0.1,0-0.3-0.1-0.3-0.2C105.7,87.5,105.8,87.4,105.8,87.4L105.8,87.4z M17.1,84c0,0-0.7,0.4-1.8,1.2
	c-0.6,0.4-1.2,0.9-2,1.5c-0.4,0.3-0.8,0.6-1.2,1c-0.4,0.3-0.8,0.7-1.3,1.1c-0.9,0.8-1.8,1.7-2.6,2.7S6.5,93.7,5.9,95s-1,2.8-1,4.2
	c0,1.5,0.5,2.9,1.5,4s2.3,1.9,3.8,2.4c1.4,0.6,2.9,0.9,4.3,1.2c2.9,0.5,5.7,0.6,8,0.6c2.4,0,4.4,0,5.7-0.1h2.3
	c0.1,0,0.2,0.1,0.2,0.2s0,0.2-0.1,0.2l-0.1,0.1c0,0-0.2,0.1-0.5,0.3c-0.4,0.2-0.9,0.4-1.6,0.7s-1.5,0.6-2.5,0.9s-2.1,0.6-3.3,0.9
	s-2.6,0.5-4.1,0.6s-3.1,0.2-4.7,0.1c-0.8-0.1-1.7-0.2-2.6-0.3s-1.8-0.4-2.8-0.7c-0.9-0.3-1.9-0.7-2.9-1.3s-1.9-1.3-2.8-2.3
	c-1.4-1.5-2.3-3.4-2.6-5.4c0-0.4-0.1-0.8-0.1-1.2v-1.5c0-0.3,0.1-0.6,0.1-0.9c0.1-0.6,0.2-1.1,0.4-1.6c0.3-1.1,0.8-2,1.3-2.8
	c1-1.7,2.2-3,3.4-4c0.6-0.5,1.2-1,1.8-1.4s1.2-0.8,1.7-1.1c1.1-0.7,2.2-1.2,3.2-1.5c0.9-0.4,1.9-0.7,2.6-0.9s1.3-0.3,1.7-0.4
	c0.4-0.1,0.6-0.1,0.6-0.1h0.1C17,83.9,17.1,84,17.1,84C17.2,83.8,17.2,83.9,17.1,84L17.1,84z"/>
</svg>
